<svg width="23" height="38" viewBox="0 0 23 38" fill="none" xmlns="http://www.w3.org/2000/svg">
<path d="M1.15375 36.9385L1.3533 15.7328L4.86051 5.41617L8.17295 15.7969L7.97341 37.0027L1.15375 36.9385Z" fill="black"/>
<path d="M4.86051 5.41617L8.17295 15.7969L7.97341 37.0027L1.15375 36.9385L1.3533 15.7328L4.86051 5.41617ZM4.86051 5.41617L4.90104 1.10869M3.577 3.02878L6.20915 3.05355" stroke="black" stroke-linecap="round" stroke-linejoin="round"/>
<path d="M2.48986 36.2796L2.56147 28.6686C2.77914 24.8649 5.14727 24.4643 5.28934 28.6943L5.21772 36.3053" stroke="#FFFCEF" stroke-linecap="round" stroke-linejoin="round"/>
<path d="M4.0709 16.8431L4.04405 19.6973L5.40798 19.7101L5.43484 16.856C5.35883 15.2695 4.17526 15.4169 4.0709 16.8431Z" stroke="#FFFCEF" stroke-width="0.5" stroke-linecap="round" stroke-linejoin="round"/>
<path d="M14.7929 37.0668L14.9925 15.861L18.4997 5.54444L21.8121 15.9252L21.6126 37.1309L14.7929 37.0668Z" fill="black"/>
<path d="M18.4997 5.54443L21.8121 15.9252L21.6126 37.1309L14.7929 37.0668L14.9925 15.861L18.4997 5.54443ZM18.4997 5.54443L18.5402 1.23695M17.2162 3.15704L19.8483 3.18181" stroke="black" stroke-linecap="round" stroke-linejoin="round"/>
<path d="M17.5084 36.4206L17.58 28.8096C17.7977 25.0059 20.1658 24.6052 20.3079 28.8353L20.2363 36.4463" stroke="#FFFCEF" stroke-linecap="round" stroke-linejoin="round"/>
<path d="M17.7101 16.9714L17.6832 19.8255L19.0471 19.8383L19.074 16.9842C18.998 15.3977 17.8144 15.5452 17.7101 16.9714Z" stroke="#FFFCEF" stroke-width="0.5" stroke-linecap="round" stroke-linejoin="round"/>
<path d="M8.13104 20.225L7.97317 37.0025L14.7928 37.0666L14.9507 20.2891L11.5705 17.1113L8.13104 20.225Z" fill="black" stroke="black" stroke-linecap="round" stroke-linejoin="round"/>
<path d="M9.19884 36.3518L9.27046 28.7408C9.57905 24.9379 13.1293 24.5484 13.3623 28.7793L13.2906 36.3903" stroke="#FFFCEF" stroke-linecap="round" stroke-linejoin="round"/>
<ellipse cx="11.5271" cy="21.7604" rx="2.04599" ry="1.99242" transform="rotate(0.539136 11.5271 21.7604)" fill="#FFFCEF"/>
</svg>
