<svg width="235" height="78" viewBox="0 0 235 78" fill="none" xmlns="http://www.w3.org/2000/svg">
<path d="M58.8 46V18H64.52V29.24H76.76V18H82.48V46H76.76V34.28H64.52V46H58.8ZM87.8969 46V25.6H93.4169V46H87.8969ZM90.6569 23.16C89.7235 23.16 88.9102 22.8267 88.2169 22.16C87.5502 21.4667 87.2169 20.6533 87.2169 19.72C87.2169 18.7867 87.5502 17.9867 88.2169 17.32C88.9102 16.6267 89.7235 16.28 90.6569 16.28C91.5902 16.28 92.3902 16.6267 93.0569 17.32C93.7502 17.9867 94.0969 18.7867 94.0969 19.72C94.0969 20.6533 93.7502 21.4667 93.0569 22.16C92.3902 22.8267 91.5902 23.16 90.6569 23.16ZM98.6409 46V41.32H108.601C108.921 41.32 109.201 41.2533 109.441 41.12C109.708 40.9867 109.908 40.8 110.041 40.56C110.201 40.32 110.281 40.0533 110.281 39.76C110.281 39.44 110.201 39.16 110.041 38.92C109.908 38.68 109.708 38.4933 109.441 38.36C109.201 38.2 108.921 38.12 108.601 38.12H104.761C103.454 38.12 102.268 37.92 101.201 37.52C100.161 37.0933 99.3209 36.4267 98.6809 35.52C98.0676 34.5867 97.7609 33.3733 97.7609 31.88C97.7609 30.7333 98.0409 29.6933 98.6009 28.76C99.1876 27.8 99.9609 27.04 100.921 26.48C101.908 25.8933 102.988 25.6 104.161 25.6H113.721V30.28H104.681C104.281 30.28 103.921 30.4133 103.601 30.68C103.308 30.9467 103.161 31.2933 103.161 31.72C103.161 32.1467 103.308 32.5067 103.601 32.8C103.894 33.0667 104.254 33.2 104.681 33.2H108.521C109.988 33.2 111.254 33.4267 112.321 33.88C113.388 34.3067 114.214 34.9867 114.801 35.92C115.388 36.8533 115.681 38.08 115.681 39.6C115.681 40.7733 115.388 41.8533 114.801 42.84C114.214 43.8 113.428 44.5733 112.441 45.16C111.454 45.72 110.348 46 109.121 46H98.6409ZM126.461 46C124.648 46 123.221 45.48 122.181 44.44C121.168 43.4 120.661 41.9867 120.661 40.2V20.48H126.141V40.04C126.141 40.3867 126.261 40.6933 126.501 40.96C126.768 41.2 127.075 41.32 127.421 41.32H131.861V46H126.461ZM117.181 30.28V25.6H131.861V30.28H117.181ZM145.08 46.48C142.973 46.48 141.093 46.0133 139.44 45.08C137.786 44.12 136.48 42.84 135.52 41.24C134.56 39.6133 134.08 37.8 134.08 35.8C134.08 33.8 134.56 32 135.52 30.4C136.48 28.7733 137.786 27.4933 139.44 26.56C141.093 25.6 142.973 25.12 145.08 25.12C147.186 25.12 149.066 25.6 150.72 26.56C152.373 27.4933 153.68 28.7733 154.64 30.4C155.6 32 156.08 33.8 156.08 35.8C156.08 37.8 155.6 39.6133 154.64 41.24C153.68 42.84 152.373 44.12 150.72 45.08C149.066 46.0133 147.186 46.48 145.08 46.48ZM145.08 41.8C146.2 41.8 147.16 41.5333 147.96 41C148.786 40.4667 149.413 39.7467 149.84 38.84C150.293 37.9333 150.52 36.92 150.52 35.8C150.52 34.68 150.293 33.6667 149.84 32.76C149.413 31.8533 148.786 31.1333 147.96 30.6C147.16 30.0667 146.2 29.8 145.08 29.8C143.96 29.8 142.986 30.0667 142.16 30.6C141.36 31.1333 140.733 31.8533 140.28 32.76C139.853 33.6667 139.64 34.68 139.64 35.8C139.64 36.92 139.853 37.9333 140.28 38.84C140.733 39.7467 141.36 40.4667 142.16 41C142.986 41.5333 143.96 41.8 145.08 41.8ZM159.884 46V31.4C159.884 29.5867 160.391 28.1733 161.404 27.16C162.444 26.12 163.871 25.6 165.684 25.6H171.324V30.28H166.644C166.298 30.28 165.991 30.4 165.724 30.64C165.484 30.88 165.364 31.1867 165.364 31.56V46H159.884ZM174.342 46V25.6H179.862V46H174.342ZM177.102 23.16C176.169 23.16 175.356 22.8267 174.662 22.16C173.996 21.4667 173.662 20.6533 173.662 19.72C173.662 18.7867 173.996 17.9867 174.662 17.32C175.356 16.6267 176.169 16.28 177.102 16.28C178.036 16.28 178.836 16.6267 179.502 17.32C180.196 17.9867 180.542 18.7867 180.542 19.72C180.542 20.6533 180.196 21.4667 179.502 22.16C178.836 22.8267 178.036 23.16 177.102 23.16ZM193.046 46.48C191.18 46.48 189.553 46 188.166 45.04C186.78 44.08 185.7 42.8 184.926 41.2C184.18 39.5733 183.806 37.7867 183.806 35.84C183.806 33.84 184.233 32.0267 185.086 30.4C185.966 28.7733 187.22 27.4933 188.846 26.56C190.473 25.6 192.42 25.12 194.686 25.12C196.98 25.12 198.913 25.6 200.486 26.56C202.06 27.52 203.26 28.8133 204.086 30.44C204.913 32.0667 205.326 33.8667 205.326 35.84V46H199.846V42.6H199.766C199.366 43.32 198.86 43.9733 198.246 44.56C197.66 45.1467 196.94 45.6133 196.086 45.96C195.233 46.3067 194.22 46.48 193.046 46.48ZM194.606 41.8C195.673 41.8 196.593 41.5333 197.366 41C198.14 40.4667 198.726 39.7467 199.126 38.84C199.553 37.9067 199.766 36.88 199.766 35.76C199.766 34.64 199.553 33.64 199.126 32.76C198.726 31.8533 198.14 31.1333 197.366 30.6C196.593 30.0667 195.673 29.8 194.606 29.8C193.513 29.8 192.566 30.0667 191.766 30.6C190.993 31.1333 190.393 31.8533 189.966 32.76C189.566 33.64 189.366 34.64 189.366 35.76C189.366 36.88 189.566 37.9067 189.966 38.84C190.393 39.7467 190.993 40.4667 191.766 41C192.566 41.5333 193.513 41.8 194.606 41.8ZM210.594 46V41.32H220.554C220.874 41.32 221.154 41.2533 221.394 41.12C221.661 40.9867 221.861 40.8 221.994 40.56C222.154 40.32 222.234 40.0533 222.234 39.76C222.234 39.44 222.154 39.16 221.994 38.92C221.861 38.68 221.661 38.4933 221.394 38.36C221.154 38.2 220.874 38.12 220.554 38.12H216.714C215.407 38.12 214.221 37.92 213.154 37.52C212.114 37.0933 211.274 36.4267 210.634 35.52C210.021 34.5867 209.714 33.3733 209.714 31.88C209.714 30.7333 209.994 29.6933 210.554 28.76C211.141 27.8 211.914 27.04 212.874 26.48C213.861 25.8933 214.941 25.6 216.114 25.6H225.674V30.28H216.634C216.234 30.28 215.874 30.4133 215.554 30.68C215.261 30.9467 215.114 31.2933 215.114 31.72C215.114 32.1467 215.261 32.5067 215.554 32.8C215.847 33.0667 216.207 33.2 216.634 33.2H220.474C221.941 33.2 223.207 33.4267 224.274 33.88C225.341 34.3067 226.167 34.9867 226.754 35.92C227.341 36.8533 227.634 38.08 227.634 39.6C227.634 40.7733 227.341 41.8533 226.754 42.84C226.167 43.8 225.381 44.5733 224.394 45.16C223.407 45.72 222.301 46 221.074 46H210.594Z" fill="black"/>
<path d="M65.0092 75.404C63.4201 75.404 62.0869 75.0404 61.0096 74.3132C59.9592 73.586 59.1647 72.5895 58.626 71.3236C58.1143 70.0308 57.8584 68.5899 57.8584 67.0008C57.8584 64.5499 58.4644 62.5299 59.6764 60.9408C60.8884 59.3517 62.6795 58.5572 65.0496 58.5572C66.1539 58.5572 67.0696 58.7457 67.7968 59.1228C68.5509 59.4729 69.1569 59.9039 69.6148 60.4156C70.0727 60.9273 70.4093 61.3987 70.6248 61.8296C70.8403 62.2605 70.9749 62.5433 71.0288 62.678H71.1096L71.15 52.2548H73.8164V75H71.554L71.15 71.364H71.0692C71.0153 71.4987 70.8672 71.7815 70.6248 72.2124C70.3824 72.6433 70.0188 73.1012 69.534 73.586C69.0761 74.0708 68.4701 74.5017 67.716 74.8788C66.9888 75.2289 66.0865 75.404 65.0092 75.404ZM65.6556 73.1012C67.2447 73.1012 68.5375 72.5625 69.534 71.4852C70.5575 70.3809 71.0692 68.8861 71.0692 67.0008C71.0692 65.1424 70.5979 63.6745 69.6552 62.5972C68.7125 61.4929 67.4467 60.9408 65.8576 60.9408C64.5917 60.9408 63.5548 61.2371 62.7468 61.8296C61.9388 62.3952 61.3463 63.1359 60.9692 64.0516C60.5921 64.9673 60.4036 65.9504 60.4036 67.0008C60.4036 68.0243 60.5787 69.0073 60.9288 69.95C61.2789 70.8657 61.8311 71.6199 62.5852 72.2124C63.3393 72.8049 64.3628 73.1012 65.6556 73.1012ZM84.6963 75.404C82.8918 75.404 81.397 75 80.2119 74.192C79.0538 73.3571 78.1919 72.2932 77.6263 71.0004C77.0876 69.6807 76.8183 68.3205 76.8183 66.92C76.8183 65.3848 77.1146 63.9843 77.7071 62.7184C78.3266 61.4256 79.2154 60.4021 80.3735 59.648C81.5586 58.8939 82.9726 58.5168 84.6155 58.5168C86.7163 58.5168 88.467 59.2036 89.8675 60.5772C91.268 61.9239 92.0222 63.7419 92.1299 66.0312C92.1568 66.1389 92.1703 66.3005 92.1703 66.516C92.1703 66.7045 92.1703 66.8796 92.1703 67.0412H79.3231C79.3231 68.9535 79.781 70.4617 80.6967 71.566C81.6394 72.6433 82.9591 73.182 84.6559 73.182C85.9218 73.182 86.9991 72.8588 87.8879 72.2124C88.8036 71.566 89.3692 70.6907 89.5847 69.5864H92.1299C91.8606 71.2563 91.066 72.6433 89.7463 73.7476C88.4266 74.8519 86.7432 75.404 84.6963 75.404ZM79.4039 65.6272H89.5039C89.5039 65.0616 89.3423 64.3883 89.0191 63.6072C88.7228 62.8261 88.2111 62.1528 87.4839 61.5872C86.7836 60.9947 85.814 60.6984 84.5751 60.6984C83.4439 60.6984 82.5147 60.9408 81.7875 61.4256C81.0603 61.9104 80.5082 62.5299 80.1311 63.284C79.754 64.0381 79.5116 64.8192 79.4039 65.6272ZM105.804 75V52.2548H110.289L117.682 73.8284H117.763L125.035 52.2548H129.519V75H126.893L127.014 53.588H126.934L119.581 75H115.743L108.39 53.588H108.309L108.43 75H105.804ZM139.22 75.3636C137.712 75.3636 136.473 75 135.503 74.2728C134.534 73.5187 133.807 72.5087 133.322 71.2428C132.864 69.9769 132.635 68.536 132.635 66.92C132.635 64.4421 133.174 62.4087 134.251 60.8196C135.355 59.2036 137.012 58.3956 139.22 58.3956C140.351 58.3956 141.294 58.5976 142.048 59.0016C142.829 59.3787 143.449 59.85 143.907 60.4156C144.391 60.9812 144.742 61.5199 144.957 62.0316H144.997V58.5572H147.664V75H145.442L145.038 71.8084H144.957C144.715 72.3471 144.364 72.8992 143.907 73.4648C143.449 74.0035 142.829 74.4613 142.048 74.8384C141.294 75.1885 140.351 75.3636 139.22 75.3636ZM140.23 73.0608C141.9 73.0608 143.099 72.5087 143.826 71.4044C144.58 70.3001 144.957 68.8188 144.957 66.9604C144.957 64.9673 144.566 63.4456 143.785 62.3952C143.031 61.3448 141.846 60.8196 140.23 60.8196C138.453 60.8196 137.173 61.4121 136.392 62.5972C135.638 63.7553 135.261 65.1963 135.261 66.92C135.261 68.7245 135.652 70.2059 136.433 71.364C137.214 72.4952 138.48 73.0608 140.23 73.0608ZM151.088 75V58.5572H153.431L153.714 62.88C153.876 62.1528 154.199 61.4525 154.684 60.7792C155.168 60.1059 155.828 59.5672 156.663 59.1632C157.525 58.7323 158.589 58.5303 159.855 58.5572H160.622V61.4256H159.814C158.091 61.4256 156.784 61.6815 155.896 62.1932C155.034 62.678 154.441 63.3648 154.118 64.2536C153.822 65.1424 153.674 66.1659 153.674 67.324V75H151.088ZM169.42 75.404C167.858 75.404 166.565 75.0808 165.541 74.4344C164.545 73.7611 163.791 72.98 163.279 72.0912C162.794 71.2024 162.552 70.4079 162.552 69.7076H165.057C165.057 69.7345 165.07 69.9365 165.097 70.3136C165.151 70.6907 165.299 71.1216 165.541 71.6064C165.784 72.0912 166.201 72.5221 166.794 72.8992C167.386 73.2493 168.248 73.4244 169.379 73.4244C170.591 73.4244 171.628 73.2089 172.49 72.778C173.379 72.3471 173.81 71.6737 173.783 70.758C173.783 69.9769 173.514 69.3844 172.975 68.9804C172.463 68.5495 171.79 68.2263 170.955 68.0108C170.12 67.7684 169.245 67.5395 168.329 67.324C167.413 67.1085 166.538 66.8392 165.703 66.516C164.895 66.1659 164.235 65.6811 163.723 65.0616C163.212 64.4421 162.956 63.5803 162.956 62.476C162.956 61.1293 163.562 60.0655 164.774 59.2844C165.986 58.4764 167.535 58.0724 169.42 58.0724C170.47 58.0724 171.534 58.2475 172.611 58.5976C173.689 58.9208 174.578 59.4999 175.278 60.3348C175.978 61.1428 176.301 62.2875 176.247 63.7688H173.823C173.877 62.7453 173.648 61.9777 173.137 61.466C172.625 60.9543 172.005 60.6176 171.278 60.456C170.578 60.2675 169.932 60.1732 169.339 60.1732C168.181 60.1732 167.225 60.3887 166.471 60.8196C165.743 61.2505 165.38 61.8565 165.38 62.6376C165.38 63.3917 165.636 63.9708 166.147 64.3748C166.686 64.7519 167.359 65.0616 168.167 65.304C169.002 65.5195 169.878 65.7349 170.793 65.9504C171.736 66.1389 172.625 66.4083 173.46 66.7584C174.295 67.1085 174.968 67.6068 175.48 68.2532C176.019 68.8996 176.288 69.7884 176.288 70.9196C176.288 72.4817 175.628 73.6264 174.308 74.3536C172.989 75.0539 171.359 75.404 169.42 75.404ZM186.604 75.404C184.799 75.404 183.304 75 182.119 74.192C180.961 73.3571 180.099 72.2932 179.534 71.0004C178.995 69.6807 178.726 68.3205 178.726 66.92C178.726 65.3848 179.022 63.9843 179.615 62.7184C180.234 61.4256 181.123 60.4021 182.281 59.648C183.466 58.8939 184.88 58.5168 186.523 58.5168C188.624 58.5168 190.374 59.2036 191.775 60.5772C193.175 61.9239 193.93 63.7419 194.037 66.0312C194.064 66.1389 194.078 66.3005 194.078 66.516C194.078 66.7045 194.078 66.8796 194.078 67.0412H181.231C181.231 68.9535 181.688 70.4617 182.604 71.566C183.547 72.6433 184.867 73.182 186.563 73.182C187.829 73.182 188.907 72.8588 189.795 72.2124C190.711 71.566 191.277 70.6907 191.492 69.5864H194.037C193.768 71.2563 192.973 72.6433 191.654 73.7476C190.334 74.8519 188.651 75.404 186.604 75.404ZM181.311 65.6272H191.411C191.411 65.0616 191.25 64.3883 190.927 63.6072C190.63 62.8261 190.119 62.1528 189.391 61.5872C188.691 60.9947 187.721 60.6984 186.483 60.6984C185.351 60.6984 184.422 60.9408 183.695 61.4256C182.968 61.9104 182.416 62.5299 182.039 63.284C181.661 64.0381 181.419 64.8192 181.311 65.6272ZM197.923 75V52.2548H200.468V75H197.923ZM204.669 75V52.2548H207.214V75H204.669ZM216.627 75.3636C215.119 75.3636 213.88 75 212.91 74.2728C211.941 73.5187 211.214 72.5087 210.729 71.2428C210.271 69.9769 210.042 68.536 210.042 66.92C210.042 64.4421 210.581 62.4087 211.658 60.8196C212.762 59.2036 214.419 58.3956 216.627 58.3956C217.758 58.3956 218.701 58.5976 219.455 59.0016C220.236 59.3787 220.856 59.85 221.314 60.4156C221.798 60.9812 222.149 61.5199 222.364 62.0316H222.404V58.5572H225.071V75H222.849L222.445 71.8084H222.364C222.122 72.3471 221.772 72.8992 221.314 73.4648C220.856 74.0035 220.236 74.4613 219.455 74.8384C218.701 75.1885 217.758 75.3636 216.627 75.3636ZM217.637 73.0608C219.307 73.0608 220.506 72.5087 221.233 71.4044C221.987 70.3001 222.364 68.8188 222.364 66.9604C222.364 64.9673 221.974 63.4456 221.192 62.3952C220.438 61.3448 219.253 60.8196 217.637 60.8196C215.86 60.8196 214.58 61.4121 213.799 62.5972C213.045 63.7553 212.668 65.1963 212.668 66.92C212.668 68.7245 213.059 70.2059 213.84 71.364C214.621 72.4952 215.887 73.0608 217.637 73.0608Z" fill="black"/>
<path d="M1 45.8572C3.57143 51.7857 28.4286 62.1429 46 45.8572H1Z" stroke="black" stroke-width="2" stroke-linejoin="round"/>
<path d="M21.3571 58.4999H17.5C18.4286 58.9285 20.2857 60.2999 20.2857 62.3571C20.2857 64.4142 20.2857 70.3571 20.2857 73.0714H26.7143V62.3571C26.7857 61.0714 27.3571 58.4999 29.0714 58.4999H25.2143M21.3571 58.4999V54.6428H25.2143V58.4999M21.3571 58.4999H25.2143M23.2857 32.3571H31C25.6428 39.2142 16.9286 35.2142 15.5714 32.3571H23.2857ZM23.2857 32.3571V27.4285M23.2857 27.4285L24.1428 24.2142M23.2857 27.4285H20.9286M23.2857 27.4285H25.6428M23.2857 27.4285L22.2143 24.2142M15.5714 76.9285V73.0714H30.7857V76.9285H15.5714ZM21.3571 45.8571V36.2142H25.2143V45.8571H21.3571Z" stroke="black" stroke-width="2" stroke-linecap="round" stroke-linejoin="round"/>
<path d="M25.2143 21.4286C25.5 21 26.4143 19.8857 27.7857 18.8572" stroke="black" stroke-width="2" stroke-linecap="round" stroke-linejoin="round"/>
<path d="M21.5714 21.4286C21.2857 21 20.3714 19.8857 19 18.8572" stroke="black" stroke-width="2" stroke-linecap="round" stroke-linejoin="round"/>
<path d="M15.7543 17.0188C15.2646 16.8593 13.8566 16.5508 12.1428 16.5927" stroke="black" stroke-width="2" stroke-linecap="round" stroke-linejoin="round"/>
<path d="M9.51701 17.2947C9.01071 17.3894 7.62704 17.7931 6.14284 18.651" stroke="black" stroke-width="2" stroke-linecap="round" stroke-linejoin="round"/>
<path d="M4.37443 21C4.01319 21.3672 3.10893 22.4896 2.38187 24.0421" stroke="black" stroke-width="2" stroke-linecap="round" stroke-linejoin="round"/>
<path d="M30.4807 17.3625C30.9699 17.2012 32.3768 16.8876 34.0907 16.9232" stroke="black" stroke-width="2" stroke-linecap="round" stroke-linejoin="round"/>
<path d="M37.4285 17.4932C37.9235 17.6357 39.2624 18.1694 40.6581 19.1648" stroke="black" stroke-width="2" stroke-linecap="round" stroke-linejoin="round"/>
<path d="M42.9767 21.4286C43.2895 21.8379 44.0471 23.0641 44.5753 24.6949" stroke="black" stroke-width="2" stroke-linecap="round" stroke-linejoin="round"/>
<path d="M44.7143 27.6428V30.8571M44.7143 34.7143V37.7143M44.7143 41.3571V42.4285M1.85712 41.3571V42.4285" stroke="black" stroke-width="2" stroke-linecap="round" stroke-linejoin="round"/>
<path d="M1.85712 34.5V37.9286M1.85712 27.4286V31.0714" stroke="black" stroke-width="2" stroke-linecap="round" stroke-linejoin="round"/>
</svg>
